<svg xmlns="http://www.w3.org/2000/svg" width="24" height="24" viewBox="0 0 24 24"><defs><style>.a{fill:#1a171b;}</style></defs><title>chocolate-white-24-atomic-organism</title><path class="a" d="M3.5,6H4A2,2,0,1,1,6,8,2,2,0,0,1,4,6H3A3,3,0,1,0,6,3,3,3,0,0,0,3,6Z"/><path class="a" d="M8.5,6H9a2,2,0,1,1,2,2A2,2,0,0,1,9,6H8a3,3,0,1,0,3-3A3,3,0,0,0,8,6Z"/><path class="a" d="M3.5,11H4a2,2,0,1,1,2,2,2,2,0,0,1-2-2H3A3,3,0,1,0,6,8a3,3,0,0,0-3,3Z"/><path class="a" d="M10.5,13H11a2,2,0,1,1,2,2,2,2,0,0,1-2-2H10a3,3,0,1,0,3-3,3,3,0,0,0-3,3Z"/><path class="a" d="M15.5,13H16a2,2,0,1,1,2,2,2,2,0,0,1-2-2H15a3,3,0,1,0,3-3,3,3,0,0,0-3,3Z"/><path class="a" d="M10.5,18H11a2,2,0,1,1,2,2,2,2,0,0,1-2-2H10a3,3,0,1,0,3-3,3,3,0,0,0-3,3Z"/></svg>