<svg xmlns="http://www.w3.org/2000/svg" width="24" height="24" viewBox="0 0 24 24"><defs><style>.a{fill:#1a171b;}</style></defs><title>chocolate-white-24-atomic-organism-circled</title><path class="a" d="M18.5,22.5V22H5.5A3.51,3.51,0,0,1,2,18.5V5.5A3.51,3.51,0,0,1,5.5,2h13A3.51,3.51,0,0,1,22,5.5v13A3.51,3.51,0,0,1,18.5,22v1A4.51,4.51,0,0,0,23,18.5V5.5A4.51,4.51,0,0,0,18.5,1H5.5A4.51,4.51,0,0,0,1,5.5v13A4.51,4.51,0,0,0,5.5,23h13Z"/><path class="a" d="M5.5,7.5H6A1.5,1.5,0,1,1,7.5,9,1.5,1.5,0,0,1,6,7.5H5A2.5,2.5,0,1,0,7.5,5,2.5,2.5,0,0,0,5,7.5Z"/><path class="a" d="M9.5,7.5H10A1.5,1.5,0,1,1,11.5,9,1.5,1.5,0,0,1,10,7.5H9A2.5,2.5,0,1,0,11.5,5,2.5,2.5,0,0,0,9,7.5Z"/><path class="a" d="M5.5,11.5H6A1.5,1.5,0,1,1,7.5,13,1.5,1.5,0,0,1,6,11.5H5A2.5,2.5,0,1,0,7.5,9,2.5,2.5,0,0,0,5,11.5Z"/><path class="a" d="M11.5,13.5H12A1.5,1.5,0,1,1,13.5,15,1.5,1.5,0,0,1,12,13.5H11A2.5,2.5,0,1,0,13.5,11,2.5,2.5,0,0,0,11,13.5Z"/><path class="a" d="M15.5,13.5H16A1.5,1.5,0,1,1,17.5,15,1.5,1.5,0,0,1,16,13.5H15A2.5,2.5,0,1,0,17.5,11,2.5,2.5,0,0,0,15,13.5Z"/><path class="a" d="M11.5,17.5H12A1.5,1.5,0,1,1,13.5,19,1.5,1.5,0,0,1,12,17.5H11A2.5,2.5,0,1,0,13.5,15,2.5,2.5,0,0,0,11,17.5Z"/></svg>