<svg xmlns="http://www.w3.org/2000/svg" width="24" height="24" viewBox="0 0 24 24"><defs><style>.a{fill:#1a171b;}</style></defs><title>chocolate-white-24-atomic-page-circled</title><path class="a" d="M17.58,19.58v-.5L7,19V5h6.09L17,8.6l.08,11h.5v0h.5L18,8.37A.5.5,0,0,0,17.84,8L13.62,4.13A.5.5,0,0,0,13.28,4H6.5a.5.5,0,0,0-.5.5v15a.5.5,0,0,0,.5.5l11.08.08a.5.5,0,0,0,.5-.5Z"/><path class="a" d="M13,4.5v4a.5.5,0,0,0,.5.5h4a.5.5,0,0,0,0-1H14V4.5a.5.5,0,0,0-1,0Z"/><path class="a" d="M18.5,22.5V22H5.5A3.51,3.51,0,0,1,2,18.5V5.5A3.51,3.51,0,0,1,5.5,2h13A3.51,3.51,0,0,1,22,5.5v13A3.51,3.51,0,0,1,18.5,22v1A4.51,4.51,0,0,0,23,18.5V5.5A4.51,4.51,0,0,0,18.5,1H5.5A4.51,4.51,0,0,0,1,5.5v13A4.51,4.51,0,0,0,5.5,23h13Z"/></svg>