<svg xmlns="http://www.w3.org/2000/svg" width="24" height="24" viewBox="0 0 24 24"><defs><style>.a{fill:#1a171b;}</style></defs><title>chocolate-white-24-barcode</title><path class="a" d="M5.5,15.5V15H5V5H5V15.5h.5v0H6V4.5A.5.5,0,0,0,5.5,4h-1a.5.5,0,0,0-.5.5v11a.5.5,0,0,0,.5.5h1a.5.5,0,0,0,.5-.5Z"/><path class="a" d="M8.5,15.5H9V4.5a.5.5,0,1,0-1,0v11a.5.5,0,0,0,1,0H9V4.5a.5.5,0,1,0-1,0v11a.5.5,0,0,0,1,0Z"/><path class="a" d="M10.5,15.5H11V4.5a.5.5,0,1,0-1,0v11a.5.5,0,0,0,1,0h0V4.5a.5.5,0,1,0-1,0v11a.5.5,0,0,0,1,0Z"/><path class="a" d="M14.5,15.5V15H14V5h0V15.5h.5v0H15V4.5a.5.5,0,0,0-.5-.5h-1a.5.5,0,0,0-.5.5v11a.5.5,0,0,0,.5.5h1a.5.5,0,0,0,.5-.5Z"/><path class="a" d="M19.5,15.5V15H19V5h0V15.5h.5v0H20V4.5a.5.5,0,0,0-.5-.5h-1a.5.5,0,0,0-.5.5v11a.5.5,0,0,0,.5.5h1a.5.5,0,0,0,.5-.5Z"/><path class="a" d="M16.5,15.5H17V4.5a.5.5,0,1,0-1,0v11a.5.5,0,0,0,1,0h0V4.5a.5.5,0,1,0-1,0v11a.5.5,0,0,0,1,0Z"/><path d="M19.31,18.83a.67.67,0,0,0-.4-.67.63.63,0,0,0,.36-.61.78.78,0,0,0-.83-.79.79.79,0,0,0-.83.78H18a.42.42,0,1,1,.85,0,.39.39,0,0,1-.43.43h-.07v.36h.07a.43.43,0,0,1,.48.47.44.44,0,0,1-.46.47.43.43,0,0,1-.46-.43h-.41a.79.79,0,0,0,.87.8A.8.8,0,0,0,19.31,18.83Zm-2.45-.64a1.37,1.37,0,0,1-.15.86.61.61,0,0,1-.48.19H15.7V17.17h.52a.61.61,0,0,1,.48.19C16.85,17.52,16.86,17.79,16.86,18.18Zm.43,0A1.47,1.47,0,0,0,17,17a1,1,0,0,0-.74-.27h-1v2.85h1a1,1,0,0,0,.74-.27A1.57,1.57,0,0,0,17.29,18.18Zm-2.89.64a.42.42,0,1,1-.83,0V17.58a.42.42,0,1,1,.83,0Zm.41,0V17.57a.82.82,0,0,0-1.64,0v1.26a.82.82,0,0,0,1.64,0Zm-1.93-.06h-.44a.57.57,0,0,1-.58.49.57.57,0,0,1-.42-.17c-.14-.15-.17-.32-.17-.89s0-.74.17-.89a.59.59,0,0,1,1,.32h.44a1,1,0,0,0-1-.87,1,1,0,0,0-.75.3c-.28.28-.28.6-.28,1.14s0,.86.28,1.14a1,1,0,0,0,.75.3A1,1,0,0,0,12.88,18.77ZM10,17.61a.43.43,0,0,1-.48.44H8.91v-.89h.64A.44.44,0,0,1,10,17.61Zm.52,2L9.9,18.37a.75.75,0,0,0,.57-.75.81.81,0,0,0-.88-.83H8.48v2.85h.43v-1.2h.54l.6,1.2ZM8.13,19.2v-.38h-.3v-.66h-.4v.66H6.72l1-2H7.28l-1,2v.38H7.43v.43h.4V19.2ZM5.7,18.81a.47.47,0,1,1-.47-.48A.46.46,0,0,1,5.7,18.81Zm0-1.26a.42.42,0,1,1-.42-.44A.42.42,0,0,1,5.65,17.55Zm.46,1.27a.75.75,0,0,0-.39-.67.69.69,0,0,0,.34-.61.78.78,0,0,0-.83-.79.78.78,0,0,0-.83.79.69.69,0,0,0,.34.61.75.75,0,0,0-.39.67.82.82,0,0,0,.88.83A.82.82,0,0,0,6.11,18.82Z"/></svg>