<svg xmlns="http://www.w3.org/2000/svg" width="24" height="24" viewBox="0 0 24 24"><defs><style>.a{fill:#1a171b;}</style></defs><title>chocolate-white-24-basket-round</title><path class="a" d="M13.94,20.5V20H11.06A7.06,7.06,0,0,1,4,12.94V12H20v.94a7.91,7.91,0,0,1-1.6,5,5.54,5.54,0,0,1-4.46,2v1a6.55,6.55,0,0,0,5.23-2.4A8.9,8.9,0,0,0,21,12.94V11.5a.5.5,0,0,0-.5-.5H3.5a.5.5,0,0,0-.5.5v1.44A8.06,8.06,0,0,0,11.06,21h2.88Z"/><path class="a" d="M8.48,11.64l2-7a.5.5,0,1,0-1-.27l-2,7a.5.5,0,1,0,1,.27"/><path class="a" d="M16.48,11.36l-2-7a.5.5,0,1,0-1,.27l2,7a.5.5,0,1,0,1-.27"/><path class="a" d="M3.66,15H20.38a.5.5,0,0,0,0-1H3.66a.5.5,0,1,0,0,1"/><path class="a" d="M5,18H19.26a.5.5,0,0,0,0-1H5a.5.5,0,0,0,0,1"/><path class="a" d="M11.5,11.5V20a.5.5,0,0,0,1,0V11.5a.5.5,0,0,0-1,0"/><path class="a" d="M7,11.56l1,8.5a.5.5,0,1,0,1-.12l-1-8.5a.5.5,0,1,0-1,.12"/><path class="a" d="M16,11.44l-1,8.84a.5.5,0,0,0,1,.11l1-8.84a.5.5,0,0,0-1-.11"/></svg>