<svg xmlns="http://www.w3.org/2000/svg" width="24" height="24" viewBox="0 0 24 24"><defs><style>.a{fill:#1a171b;}</style></defs><title>chocolate-white-24-book</title><path class="a" d="M3,17.5A2.51,2.51,0,0,0,5.5,20h14V19H5.5A1.51,1.51,0,0,1,4,17.5H3Z"/><path class="a" d="M19.5,7.5V7H5.5a1.5,1.5,0,0,1,0-3h14a.5.5,0,1,0,0-1,2.52,2.52,0,0,0-1.72.73A2.48,2.48,0,0,0,17,5.5a2.48,2.48,0,0,0,.78,1.77A2.52,2.52,0,0,0,19.5,8a.5.5,0,1,0,0-1V7a1.52,1.52,0,0,1-1-.45A1.48,1.48,0,0,1,18,5.5a1.48,1.48,0,0,1,.47-1.05,1.52,1.52,0,0,1,1-.45.5.5,0,1,0,0-1H5.5a2.5,2.5,0,1,0,0,5h14a.5.5,0,1,0,0-1Z"/><path class="a" d="M4,17.5V5.5a.5.5,0,0,0-1,0v12a.5.5,0,0,0,1,0"/><path class="a" d="M20,19.5V7.5a.5.5,0,0,0-1,0v12a.5.5,0,0,0,1,0"/></svg>