<svg xmlns="http://www.w3.org/2000/svg" width="24" height="24" viewBox="0 0 24 24"><defs><style>.a{fill:#1a171b;}</style></defs><title>chocolate-white-24-book-open-lines-tight</title><path class="a" d="M3,8a1.1,1.1,0,0,1,.25-.67A3.16,3.16,0,0,1,4.66,6.4,6.74,6.74,0,0,1,7,6a6.2,6.2,0,0,1,2.94.67,2.59,2.59,0,0,1,.81.66A1.1,1.1,0,0,1,11,8h1a2.1,2.1,0,0,0-.46-1.28A4.12,4.12,0,0,0,9.69,5.46,7.74,7.74,0,0,0,7,5a7.17,7.17,0,0,0-3.42.8,3.57,3.57,0,0,0-1.12.93A2.1,2.1,0,0,0,2,8H3Z"/><path class="a" d="M4.66,9.39A6.74,6.74,0,0,1,7,9a6.74,6.74,0,0,1,2.34.39.5.5,0,0,0,.35-.94A7.74,7.74,0,0,0,7,8a7.74,7.74,0,0,0-2.69.46.5.5,0,1,0,.35.94Z"/><path class="a" d="M4.66,11.39A6.74,6.74,0,0,1,7,11a6.74,6.74,0,0,1,2.34.39.5.5,0,1,0,.35-.94A7.74,7.74,0,0,0,7,10a7.74,7.74,0,0,0-2.69.46.5.5,0,0,0,.35.94Z"/><path class="a" d="M4.66,13.39A6.74,6.74,0,0,1,7,13a6.74,6.74,0,0,1,2.34.39.5.5,0,1,0,.35-.94A7.74,7.74,0,0,0,7,12a7.74,7.74,0,0,0-2.69.46.5.5,0,0,0,.35.94Z"/><path class="a" d="M4.66,15.39A6.74,6.74,0,0,1,7,15a6.74,6.74,0,0,1,2.34.39.5.5,0,1,0,.35-.94A7.74,7.74,0,0,0,7,14a7.74,7.74,0,0,0-2.69.46.5.5,0,0,0,.35.94Z"/><path class="a" d="M13.66,9.39a7.13,7.13,0,0,1,4.68,0,.5.5,0,0,0,.35-.94,8.13,8.13,0,0,0-5.38,0,.5.5,0,1,0,.35.94Z"/><path class="a" d="M13.66,11.39a7.13,7.13,0,0,1,4.68,0,.5.5,0,1,0,.35-.94,8.13,8.13,0,0,0-5.38,0,.5.5,0,1,0,.35.94Z"/><path class="a" d="M13.66,13.39a7.13,7.13,0,0,1,4.68,0,.5.5,0,1,0,.35-.94,8.13,8.13,0,0,0-5.38,0,.5.5,0,1,0,.35.94Z"/><path class="a" d="M13.66,15.39a7.13,7.13,0,0,1,4.68,0,.5.5,0,1,0,.35-.94,8.13,8.13,0,0,0-5.38,0,.5.5,0,1,0,.35.94Z"/><path class="a" d="M12,8a1.1,1.1,0,0,1,.25-.67,3.16,3.16,0,0,1,1.41-.93A6.74,6.74,0,0,1,16,6a6.2,6.2,0,0,1,2.94.67,2.59,2.59,0,0,1,.81.66A1.1,1.1,0,0,1,20,8h1a2.1,2.1,0,0,0-.46-1.28,4.12,4.12,0,0,0-1.85-1.27A7.74,7.74,0,0,0,16,5a7.17,7.17,0,0,0-3.42.8,3.57,3.57,0,0,0-1.12.93A2.1,2.1,0,0,0,11,8h1Z"/><path class="a" d="M3,20a1.1,1.1,0,0,1,.25-.67,3.16,3.16,0,0,1,1.41-.93A6.74,6.74,0,0,1,7,18a6.2,6.2,0,0,1,2.94.67,2.59,2.59,0,0,1,.81.66A1.1,1.1,0,0,1,11,20h1a2.1,2.1,0,0,0-.46-1.28,4.12,4.12,0,0,0-1.85-1.27A7.74,7.74,0,0,0,7,17a7.17,7.17,0,0,0-3.42.8,3.57,3.57,0,0,0-1.12.93A2.1,2.1,0,0,0,2,20H3Z"/><path class="a" d="M12,20a1.1,1.1,0,0,1,.25-.67,3.16,3.16,0,0,1,1.41-.93A6.74,6.74,0,0,1,16,18a6.2,6.2,0,0,1,2.94.67,2.59,2.59,0,0,1,.81.66A1.1,1.1,0,0,1,20,20h1a2.1,2.1,0,0,0-.46-1.28,4.12,4.12,0,0,0-1.85-1.27A7.74,7.74,0,0,0,16,17a7.17,7.17,0,0,0-3.42.8,3.57,3.57,0,0,0-1.12.93A2.1,2.1,0,0,0,11,20h1Z"/><polyline class="a" points="2 7.5 2 19.5 3 19.5 3 7.5"/><polyline class="a" points="11 7.5 11 19.5 12 19.5 12 7.5"/><polyline class="a" points="20 7.5 20 19.5 21 19.5 21 7.5"/></svg>