<svg xmlns="http://www.w3.org/2000/svg" width="24" height="24" viewBox="0 0 24 24"><defs><style>.a{fill:#1a171b;}</style></defs><title>chocolate-white-24-book-open</title><path class="a" d="M4,8a1.1,1.1,0,0,1,.25-.67A3.16,3.16,0,0,1,5.66,6.4,6.74,6.74,0,0,1,8,6a6.2,6.2,0,0,1,2.94.67,2.59,2.59,0,0,1,.81.66A1.1,1.1,0,0,1,12,8a.5.5,0,0,0,1,0,2.1,2.1,0,0,0-.46-1.28,4.12,4.12,0,0,0-1.85-1.27A7.74,7.74,0,0,0,8,5a7.17,7.17,0,0,0-3.42.8,3.57,3.57,0,0,0-1.12.93A2.1,2.1,0,0,0,3,8,.5.5,0,0,0,4,8Z"/><path class="a" d="M13,8a1.1,1.1,0,0,1,.25-.67,3.16,3.16,0,0,1,1.41-.93A6.74,6.74,0,0,1,17,6a6.2,6.2,0,0,1,2.94.67,2.59,2.59,0,0,1,.81.66A1.1,1.1,0,0,1,21,8a.5.5,0,0,0,1,0,2.1,2.1,0,0,0-.46-1.28,4.12,4.12,0,0,0-1.85-1.27A7.74,7.74,0,0,0,17,5a7.17,7.17,0,0,0-3.42.8,3.57,3.57,0,0,0-1.12.93A2.1,2.1,0,0,0,12,8a.5.5,0,0,0,1,0Z"/><path class="a" d="M4,20a1.1,1.1,0,0,1,.25-.67,3.16,3.16,0,0,1,1.41-.93A6.74,6.74,0,0,1,8,18a6.2,6.2,0,0,1,2.94.67,2.59,2.59,0,0,1,.81.66A1.1,1.1,0,0,1,12,20a.5.5,0,0,0,1,0,2.1,2.1,0,0,0-.46-1.28,4.12,4.12,0,0,0-1.85-1.27A7.74,7.74,0,0,0,8,17a7.17,7.17,0,0,0-3.42.8,3.57,3.57,0,0,0-1.12.93A2.1,2.1,0,0,0,3,20a.5.5,0,0,0,1,0Z"/><path class="a" d="M13,20a1.1,1.1,0,0,1,.25-.67,3.16,3.16,0,0,1,1.41-.93A6.74,6.74,0,0,1,17,18a6.2,6.2,0,0,1,2.94.67,2.59,2.59,0,0,1,.81.66A1.1,1.1,0,0,1,21,20a.5.5,0,0,0,1,0,2.1,2.1,0,0,0-.46-1.28,4.12,4.12,0,0,0-1.85-1.27A7.74,7.74,0,0,0,17,17a7.17,7.17,0,0,0-3.42.8,3.57,3.57,0,0,0-1.12.93A2.1,2.1,0,0,0,12,20a.5.5,0,0,0,1,0Z"/><path class="a" d="M3,7.5v12a.5.5,0,0,0,1,0V7.5a.5.5,0,0,0-1,0"/><path class="a" d="M12,7.5v12a.5.5,0,0,0,1,0V7.5a.5.5,0,0,0-1,0"/><path class="a" d="M21,7.5v12a.5.5,0,0,0,1,0V7.5a.5.5,0,0,0-1,0"/></svg>