<svg xmlns="http://www.w3.org/2000/svg" width="24" height="24" viewBox="0 0 24 24"><defs><style>.a{fill:#1a171b;}</style></defs><title>chocolate-white-24-burger-menu</title><polyline class="a" points="22 8 2 8 2 9 22 9"/><polyline class="a" points="22 4 2 4 2 5 22 5"/><polyline class="a" points="22 12 2 12 2 13 22 13"/><polygon points="6.72 19.79 6.72 14.81 5.96 14.81 4.53 17.91 3.07 14.81 2.32 14.81 2.32 19.79 3.07 19.79 3.07 16.46 4.25 18.89 4.81 18.89 5.96 16.46 5.96 19.79 6.72 19.79"/><path d="M21.62,18.11V14.81h-.76v3.27a1,1,0,1,1-2.07,0V14.81H18v3.31a1.79,1.79,0,0,0,3.58,0Zm-5.1,1.68v-5h-.76v3.5l-2.3-3.5h-.69v5h.76V16.28l2.3,3.51Zm-5.05,0v-.68H9v-1.5h2.07v-.67H9V15.49h2.43v-.68H8.29v5Z"/></svg>