<svg xmlns="http://www.w3.org/2000/svg" width="24" height="24" viewBox="0 0 24 24"><defs><style>.a{fill:#1a171b;}</style></defs><title>burger-menu-double</title><polyline class="a" points="20 7.5 4 7.5 4 9.5 20 9.5"/><polyline class="a" points="20 3.5 4 3.5 4 5.5 20 5.5"/><polyline class="a" points="20 11.5 4 11.5 4 13.5 20 13.5"/><polygon points="7.06 19.79 7.06 17.49 6.3 18.99 5.78 18.99 5.02 17.49 5.02 19.79 4.25 19.79 4.25 15.84 5.01 15.84 6.04 17.98 7.07 15.84 7.83 15.84 7.83 19.79 7.06 19.79"/><polygon points="9.01 19.79 9.01 15.84 11.61 15.84 11.61 16.53 9.78 16.53 9.78 17.45 11.34 17.45 11.34 18.14 9.78 18.14 9.78 19.1 11.61 19.1 11.61 19.79 9.01 19.79"/><polygon points="14.97 19.79 13.4 17.37 13.4 19.79 12.63 19.79 12.63 15.84 13.32 15.84 14.88 18.26 14.88 15.84 15.66 15.84 15.66 19.79 14.97 19.79"/><path d="M18.24,19.83a1.38,1.38,0,0,1-1.46-1.39v-2.6h.77v2.57a.69.69,0,1,0,1.37,0V15.84h.77v2.6A1.37,1.37,0,0,1,18.24,19.83Z"/></svg>