<svg xmlns="http://www.w3.org/2000/svg" width="24" height="24" viewBox="0 0 24 24"><defs><style>.a{fill:#fff;}</style></defs><title>chocolate-white-24-camera</title><path d="M16.5,12.5H16a4.5,4.5,0,1,1-1.32-3.18A4.48,4.48,0,0,1,16,12.5h1A5.5,5.5,0,1,0,11.5,18,5.5,5.5,0,0,0,17,12.5Z"/><polygon points="2.5 17.5 3 17.5 3 8.92 8.83 7.95 9.81 6 12.19 6 13.17 7.96 21 8.94 21 17 2.5 17 2.5 17.5 3 17.5 2.5 17.5 2.5 18 22 18 22 8.06 13.83 7.04 12.81 5 9.19 5 8.17 7.05 2 8.08 2 18 2.5 18 2.5 17.5"/><path d="M7.5,7.5V7h-4V8h4V7h-4V8h4V7.5Z"/><path d="M9.08,11.16a1.65,1.65,0,0,1,1.12-1.05l-.27-1a2.65,2.65,0,0,0-1.8,1.69l.95.32Z"/><circle class="a" cx="18.5" cy="10.5" r="1"/><path d="M19.5,10.5H19a.5.5,0,1,1-.5-.5.5.5,0,0,1,.5.5h1A1.5,1.5,0,1,0,18.5,12,1.5,1.5,0,0,0,20,10.5Z"/></svg>