<svg xmlns="http://www.w3.org/2000/svg" width="24" height="24" viewBox="0 0 24 24"><defs><style>.a{fill:#1a171b;}</style></defs><title>chocolate-white-24-copy-link-45</title><path class="a" d="M19.85,3.15A.5.5,0,0,0,19.5,3H18V2.5a.5.5,0,0,0-.5-.5H6.5a.5.5,0,0,0-.5.5V3H4.5a.5.5,0,0,0-.5.5v17a.5.5,0,0,0,.5.5h15a.5.5,0,0,0,.5-.5V3.5A.5.5,0,0,0,19.85,3.15ZM7,3H17V5H7ZM19,20H5V4H6V5.5a.5.5,0,0,0,.5.5h11a.5.5,0,0,0,.5-.5V4h1ZM16.24,7.59A1.73,1.73,0,0,0,15,7a1.73,1.73,0,0,0-1.21.59L11.69,9.73a1.73,1.73,0,0,0-.59,1.21,1.73,1.73,0,0,0,.59,1.21l.07.07-.6.6a2.17,2.17,0,0,0-2.8.23L6.89,14.52a2.18,2.18,0,0,0,0,3.08h0l.19.19h0a2.18,2.18,0,0,0,3.08,0l1.47-1.47a2.17,2.17,0,0,0,.23-2.8l.6-.6.07.07a1.73,1.73,0,0,0,1.21.59A1.73,1.73,0,0,0,15,13l2.14-2.14a1.73,1.73,0,0,0,.59-1.21,1.73,1.73,0,0,0-.59-1.21Zm-5,7.2a1.18,1.18,0,0,1-.35.83L9.45,17.09a1.18,1.18,0,0,1-1.67,0h0L7.6,16.9h0a1.18,1.18,0,0,1,0-1.67l1.47-1.47a1.13,1.13,0,0,1,1.36-.21L10,14a.5.5,0,0,0,.71.71l.45-.45A1.18,1.18,0,0,1,11.27,14.78Zm5.12-4.63-2.14,2.14c-.25.25-.41.3-.5.29s-.25,0-.5-.29l-.07-.07.5-.5A.5.5,0,0,0,13,11l-.5.5-.07-.07c-.25-.25-.3-.41-.29-.5s0-.25.29-.5l2.14-2.14c.25-.25.41-.3.5-.29s.25,0,.5.29l.86.86c.25.25.3.41.29.5S16.64,9.91,16.39,10.15Z"/></svg>