<svg xmlns="http://www.w3.org/2000/svg" width="24" height="24" viewBox="0 0 24 24"><title>chocolate-white-24-copy-URL</title><path d="M19.85,3.15A.5.5,0,0,0,19.5,3H18V2.5a.5.5,0,0,0-.5-.5H6.5a.5.5,0,0,0-.5.5V3H4.5a.5.5,0,0,0-.5.5v17a.5.5,0,0,0,.5.5h15a.5.5,0,0,0,.5-.5V3.5A.5.5,0,0,0,19.85,3.15ZM7,3H17V5H7ZM19,20H5V4H6V5.5a.5.5,0,0,0,.5.5h11a.5.5,0,0,0,.5-.5V4h1ZM12,7H12a6,6,0,0,0,0,12H12A6,6,0,0,0,12,7Zm4,3a8.41,8.41,0,0,1-1.08.42A10.42,10.42,0,0,0,14,8.9c-.19-.25-.37-.47-.55-.68a5,5,0,0,1,2.13,1.24A5.06,5.06,0,0,1,16,10Zm1,3a5,5,0,0,1-.45,2,8.33,8.33,0,0,0-1.19-.58A5.07,5.07,0,0,0,15.61,13a5.14,5.14,0,0,0-.28-1.61,9.1,9.1,0,0,0,1.2-.49A5,5,0,0,1,17,13ZM7,13a5,5,0,0,1,.47-2.09,9.1,9.1,0,0,0,1.2.49A5.14,5.14,0,0,0,8.39,13a5.07,5.07,0,0,0,.24,1.47A8.33,8.33,0,0,0,7.45,15,5,5,0,0,1,7,13Zm2.39,0a4,4,0,0,1,.25-1.34,10.75,10.75,0,0,0,1.86.24v1.94a9.15,9.15,0,0,0-1.92.31A3.88,3.88,0,0,1,9.39,13ZM12.5,8.72a11.6,11.6,0,0,1,.79,1,8.9,8.9,0,0,1,.65,1,9.74,9.74,0,0,1-1.45.18Zm-1,0V10.9a9.85,9.85,0,0,1-1.45-.17,9.18,9.18,0,0,1,.79-1.23C11.07,9.2,11.29,8.95,11.5,8.72Zm0,6.13v2.44a11.6,11.6,0,0,1-.79-1A8.7,8.7,0,0,1,10,15.08,8.07,8.07,0,0,1,11.5,14.84Zm1,2.44V14.85a8.14,8.14,0,0,1,1.54.24,9,9,0,0,1-.89,1.41C12.93,16.8,12.71,17.05,12.5,17.28Zm0-3.44V11.9a10.74,10.74,0,0,0,1.86-.24A4,4,0,0,1,14.61,13a3.87,3.87,0,0,1-.19,1.15A9.15,9.15,0,0,0,12.5,13.85ZM10.6,8.22c-.18.2-.36.43-.55.68a10.42,10.42,0,0,0-1,1.57l-.33-.11A7.4,7.4,0,0,1,8,10a5.05,5.05,0,0,1,.48-.58A5,5,0,0,1,10.6,8.22ZM7.95,15.91a7.24,7.24,0,0,1,1-.51A10.18,10.18,0,0,0,10,17.1c.19.25.37.47.55.68a5,5,0,0,1-2.13-1.24A5.06,5.06,0,0,1,7.95,15.91Zm5.45,1.87c.18-.2.36-.43.55-.68a10.19,10.19,0,0,0,1-1.7l.24.09a6.76,6.76,0,0,1,.81.42,5.05,5.05,0,0,1-.52.62A5,5,0,0,1,13.4,17.78Z"/></svg>