<svg xmlns="http://www.w3.org/2000/svg" width="24" height="24" viewBox="0 0 24 24"><defs><style>.a{fill:#1a171b;}</style></defs><title>chocolate-white-24-direction-out</title><polygon class="a" points="15.15 8.85 17.79 11.5 15.15 14.15 15.85 14.85 19.21 11.5 15.85 8.15 15.15 8.85 15.15 8.85"/><polyline class="a" points="18.5 11 9.5 11 9.5 12 18.5 12"/><path class="a" d="M15,16a3.49,3.49,0,0,1-2.49,1h-3A3.51,3.51,0,0,1,6,13.5v-4A3.51,3.51,0,0,1,9.5,6h3A3.49,3.49,0,0,1,15,7l.7-.71A4.49,4.49,0,0,0,12.5,5h-3A4.51,4.51,0,0,0,5,9.5v4A4.51,4.51,0,0,0,9.5,18h3a4.49,4.49,0,0,0,3.2-1.34L15,16Z"/></svg>