<svg xmlns="http://www.w3.org/2000/svg" width="24" height="24" viewBox="0 0 24 24"><defs><style>.a{fill:#1a171b;}</style></defs><title>chocolate-white-24-direction-in-large</title><polygon class="a" points="8.15 7.85 11.79 11.5 8.15 15.15 8.85 15.85 13.21 11.5 8.85 7.15 8.15 7.85 8.15 7.85"/><polyline class="a" points="13 11 3.5 11 3.5 12 13 12"/><path class="a" d="M4.28,18.63A4.49,4.49,0,0,0,7.5,20h7A4.51,4.51,0,0,0,19,15.5v-8A4.51,4.51,0,0,0,14.5,3h-7A4.49,4.49,0,0,0,4.31,4.33L5,5A3.49,3.49,0,0,1,7.5,4h7A3.51,3.51,0,0,1,18,7.5v8A3.51,3.51,0,0,1,14.5,19h-7A3.49,3.49,0,0,1,5,17.94l-.72.7Z"/></svg>