<svg xmlns="http://www.w3.org/2000/svg" width="24" height="24" viewBox="0 0 24 24"><defs><style>.a{fill:#1a171b;}</style></defs><title>chocolate-white-24-direction-in</title><polygon class="a" points="10.15 8.85 12.79 11.5 10.15 14.15 10.85 14.85 14.21 11.5 10.85 8.15 10.15 8.85 10.15 8.85"/><polyline class="a" points="14 11 4.5 11 4.5 12 14 12"/><path class="a" d="M7.28,16.63A4.49,4.49,0,0,0,10.5,18h3A4.51,4.51,0,0,0,18,13.5v-4A4.51,4.51,0,0,0,13.5,5h-3A4.49,4.49,0,0,0,7.31,6.33L8,7A3.49,3.49,0,0,1,10.5,6h3A3.51,3.51,0,0,1,17,9.5v4A3.51,3.51,0,0,1,13.5,17h-3A3.49,3.49,0,0,1,8,15.94l-.72.7Z"/></svg>