<svg xmlns="http://www.w3.org/2000/svg" width="24" height="24" viewBox="0 0 24 24"><defs><style>.a{fill:#1a171b;}</style></defs><title>chocolate-white-24-document-list</title><path class="a" d="M18.5,20.5V20H6V4H18V20.5h.5v0H19V3.5a.5.5,0,0,0-.5-.5H5.5a.5.5,0,0,0-.5.5v17a.5.5,0,0,0,.5.5h13a.5.5,0,0,0,.5-.5Z"/><path class="a" d="M11.5,8h4a.5.5,0,0,0,0-1h-4a.5.5,0,0,0,0,1"/><path class="a" d="M11.5,11h4a.5.5,0,0,0,0-1h-4a.5.5,0,0,0,0,1"/><path class="a" d="M11.5,14h4a.5.5,0,0,0,0-1h-4a.5.5,0,0,0,0,1"/><path class="a" d="M11.5,17h4a.5.5,0,0,0,0-1h-4a.5.5,0,0,0,0,1"/><path class="a" d="M8.5,8h1a.5.5,0,1,0,0-1h-1a.5.5,0,0,0,0,1"/><path class="a" d="M8.5,11h1a.5.5,0,1,0,0-1h-1a.5.5,0,0,0,0,1"/><path class="a" d="M8.5,14h1a.5.5,0,1,0,0-1h-1a.5.5,0,0,0,0,1"/><path class="a" d="M8.5,17h1a.5.5,0,1,0,0-1h-1a.5.5,0,0,0,0,1"/></svg>