<svg xmlns="http://www.w3.org/2000/svg" width="24" height="24" viewBox="0 0 24 24"><defs><style>.a{fill:#1a171b;}</style></defs><title>chocolate-white-24-download</title><path class="a" d="M17.15,16.75a.5.5,0,0,1,0,.71l-4.8,4.8a.5.5,0,0,1-.71,0l-4.8-4.8a.5.5,0,0,1,.71-.71l3.95,3.95V13.9a.5.5,0,0,1,1,0v6.79l3.95-3.95A.5.5,0,0,1,17.15,16.75ZM20.5,8.3A3.7,3.7,0,0,1,16.8,12H6.4a2.9,2.9,0,1,1,0-5.8,2.84,2.84,0,0,1,.5,0A4.48,4.48,0,0,1,15,5.08,3.7,3.7,0,0,1,20.5,8.3Zm-1,0a2.7,2.7,0,0,0-4.38-2.11A.5.5,0,0,1,14.36,6a3.49,3.49,0,0,0-6.61.93.5.5,0,0,1-.67.39A1.9,1.9,0,1,0,6.4,11H16.8A2.7,2.7,0,0,0,19.5,8.3Z"/></svg>