<svg xmlns="http://www.w3.org/2000/svg" width="24" height="24" viewBox="0 0 24 24"><defs><style>.a{fill:#1a171b;}</style></defs><title>chocolate-white-24-email</title><path class="a" d="M20.5,18.5V18H3V5H20V18.5h.5v0H21V4.5a.5.5,0,0,0-.5-.5H2.5a.5.5,0,0,0-.5.5v14a.5.5,0,0,0,.5.5h18a.5.5,0,0,0,.5-.5Z"/><path class="a" d="M2,4.72l1.45,3,.1.14L9,13.22l.05,0a4.13,4.13,0,0,0,4.95,0l.05,0L19.4,7.85l.1-.14,1.45-3a.5.5,0,0,0-.9-.44L18.63,7.21l-5.31,5.31.35.35-.3-.4a3.13,3.13,0,0,1-3.75,0l-.3.4.35-.35L4.37,7.21,3,4.28a.5.5,0,1,0-.9.44Z"/><path class="a" d="M2.85,18.85l5-5a.5.5,0,1,0-.71-.71l-5,5a.5.5,0,0,0,.71.71"/><path class="a" d="M20.85,18.15l-5-5a.5.5,0,1,0-.71.71l5,5a.5.5,0,0,0,.71-.71"/></svg>