<svg xmlns="http://www.w3.org/2000/svg" width="24" height="24" viewBox="0 0 24 24"><defs><style>.a{fill:#1a171b;}</style></defs><title>chocolate-white-24-email-send</title><path class="a" d="M21.5,16.5V16H8V8H21v8.5h.5v0H22v-9a.5.5,0,0,0-.5-.5H7.5a.5.5,0,0,0-.5.5v9a.5.5,0,0,0,.5.5h14a.5.5,0,0,0,.5-.5Z"/><path class="a" d="M7.1,7.79l1.45,2,.1.1L13,13.27h0c.32.24.54.42.75.56a1.12,1.12,0,0,0,1.45,0c.21-.14.43-.32.75-.56h0L20.35,9.9l.1-.1,1.45-2a.5.5,0,1,0-.81-.59L19.69,9.15l-4.32,3.33.31.4-.3-.4c-.33.25-.56.43-.71.53l-.15.09h0v0h0v0h0v0a.92.92,0,0,1-.24-.14l-.65-.49-.3.4.31-.4L9.31,9.15,7.9,7.21a.5.5,0,1,0-.81.59Z"/><path class="a" d="M7.8,16.9l4-3a.5.5,0,1,0-.6-.8l-4,3a.5.5,0,1,0,.6.8"/><path class="a" d="M21.8,16.1l-4-3a.5.5,0,1,0-.6.8l4,3a.5.5,0,1,0,.6-.8"/><path class="a" d="M5.5,7h-3a.5.5,0,0,0,0,1h3a.5.5,0,0,0,0-1"/><path class="a" d="M5.5,13h-2a.5.5,0,0,0,0,1h2a.5.5,0,0,0,0-1"/><path class="a" d="M5.5,11h-3a.5.5,0,0,0,0,1h3a.5.5,0,0,0,0-1"/><path class="a" d="M5.5,9h-4a.5.5,0,0,0,0,1h4a.5.5,0,0,0,0-1"/><path class="a" d="M5.5,15h-1a.5.5,0,0,0,0,1h1a.5.5,0,0,0,0-1"/></svg>