<svg xmlns="http://www.w3.org/2000/svg" width="24" height="24" viewBox="0 0 24 24"><title>expand-vertically</title><path d="M16.5,14.5V14H6.5a.51.51,0,0,1-.5-.5v-3a.51.51,0,0,1,.5-.5h10a.51.51,0,0,1,.5.5v3a.51.51,0,0,1-.5.5v1A1.5,1.5,0,0,0,18,13.5v-3A1.5,1.5,0,0,0,16.5,9H6.5A1.5,1.5,0,0,0,5,10.5v3A1.5,1.5,0,0,0,6.5,15h10Z"/><path d="M11.5,18H11c0,1.38,0,1.5,0,1.5h1v-5H11s0,2.12,0,3.5h1V14.5H11s0,2.12,0,3.5,0,1.5,0,1.5h1V18Z"/><polygon points="8.15 16.85 11.5 20.21 14.85 16.85 14.15 16.15 11.5 18.79 8.85 16.15 8.15 16.85 8.15 16.85"/><path d="M11.5,6H12V4.5H11s0,.12,0,1.5,0,3.5,0,3.5h1V6H11c0,1.38,0,3.5,0,3.5h1v-5H11s0,.12,0,1.5Z"/><polygon points="14.85 7.15 11.5 3.79 8.15 7.15 8.85 7.85 11.5 5.21 14.15 7.85 14.85 7.15 14.85 7.15"/></svg>