<svg xmlns="http://www.w3.org/2000/svg" width="24" height="24" viewBox="0 0 24 24"><title>expand-horizontally</title><path d="M9,17h.5V7a.51.51,0,0,1,.5-.5h3a.51.51,0,0,1,.5.5V17a.51.51,0,0,1-.5.5H10a.51.51,0,0,1-.5-.5h-1A1.5,1.5,0,0,0,10,18.5h3A1.5,1.5,0,0,0,14.5,17V7A1.5,1.5,0,0,0,13,5.5H10A1.5,1.5,0,0,0,8.5,7V17Z"/><path d="M5.5,12v-.5H4v1H9v-1H5.5v1H9v-1H4v1H5.5Z"/><polygon points="6.65 8.65 3.29 12 6.65 15.35 7.35 14.65 4.71 12 7.35 9.35 6.65 8.65 6.65 8.65"/><path d="M17.5,12v.5H19v-1H14v1h3.5v-1H14v1h5v-1H17.5Z"/><polygon points="16.35 15.35 19.71 12 16.35 8.65 15.65 9.35 18.29 12 15.65 14.65 16.35 15.35 16.35 15.35"/></svg>