<svg xmlns="http://www.w3.org/2000/svg" width="24" height="24" viewBox="0 0 24 24"><title>chocolate-white-24-globe</title><path d="M12,2.5A9.5,9.5,0,1,0,21.5,12,9.51,9.51,0,0,0,12,2.5Zm7,4.66a8.44,8.44,0,0,1,1.5,4.35H17.57a12,12,0,0,0-.64-3.39A12,12,0,0,0,19,7.15ZM15.62,4.31A8.53,8.53,0,0,1,18,6c.12.12.23.25.34.37a11.21,11.21,0,0,1-1.79.82,11.9,11.9,0,0,0-1.48-2.52A6.31,6.31,0,0,0,15.62,4.31ZM12.5,14.65V12.5h4.07a10.89,10.89,0,0,1-.51,2.82A12.4,12.4,0,0,0,12.5,14.65Zm3.22,1.62c-.14.34-.29.65-.44.93a10.79,10.79,0,0,1-.9,1.42l-.23.29a6.21,6.21,0,0,0-1.65-.35V15.66A11.39,11.39,0,0,1,15.72,16.27ZM16,8.42a10.88,10.88,0,0,1,.59,3.08H12.5V9A14.49,14.49,0,0,0,16,8.42ZM12.5,8V5.45a6.23,6.23,0,0,0,1.65-.35A10.83,10.83,0,0,1,15.6,7.49,13.51,13.51,0,0,1,12.5,8ZM12,3.5a8.48,8.48,0,0,1,2.48.37A5.23,5.23,0,0,1,12,4.49a5.23,5.23,0,0,1-2.48-.62A8.48,8.48,0,0,1,12,3.5ZM7.95,15.32a10.83,10.83,0,0,1-.5-2.82H11.5v2.15A12.39,12.39,0,0,0,7.95,15.32Zm3.55.34v2.89a6.23,6.23,0,0,0-1.65.35,10.89,10.89,0,0,1-1.56-2.65A11.43,11.43,0,0,1,11.5,15.66ZM7.43,11.5A11,11,0,0,1,8,8.42,14.49,14.49,0,0,0,11.5,9V11.5Zm1-4c.11-.24.22-.47.33-.68a10.79,10.79,0,0,1,.9-1.42l.23-.29a6.21,6.21,0,0,0,1.65.35v2.5A13.44,13.44,0,0,1,8.39,7.48ZM6,6a8.53,8.53,0,0,1,2.4-1.68,6.31,6.31,0,0,0,.53.35A11.91,11.91,0,0,0,7.44,7.17L7,7a11,11,0,0,1-1.35-.64l0,0C5.76,6.24,5.87,6.11,6,6ZM5,7.15a12,12,0,0,0,2,1,12,12,0,0,0-.64,3.39H3.52A8.44,8.44,0,0,1,5,7.15Zm0,9.67A8.44,8.44,0,0,1,3.52,12.5H6.43A12,12,0,0,0,7,15.69,11.31,11.31,0,0,0,5,16.82Zm3.39,2.87A8.53,8.53,0,0,1,6,18c-.13-.13-.25-.27-.37-.41a10.21,10.21,0,0,1,1.73-1,11.88,11.88,0,0,0,1.57,2.71A6.31,6.31,0,0,0,8.38,19.69ZM12,20.5a8.48,8.48,0,0,1-2.48-.37,5.24,5.24,0,0,1,5,0A8.48,8.48,0,0,1,12,20.5ZM18,18a8.53,8.53,0,0,1-2.4,1.68,6.31,6.31,0,0,0-.53-.35,11.89,11.89,0,0,0,1.56-2.7l.28.12a10.37,10.37,0,0,1,1.34.77l.11.08C18.26,17.74,18.14,17.88,18,18Zm1-1.19a11.33,11.33,0,0,0-2-1.13,12,12,0,0,0,.57-3.19h2.91A8.44,8.44,0,0,1,19,16.82Z"/></svg>