<svg xmlns="http://www.w3.org/2000/svg" width="24" height="24" viewBox="0 0 24 24"><defs><style>.a{fill:#1a171b;}</style></defs><title>chocolate-white-24-hourglass</title><path class="a" d="M5.5,4.5H5A6.78,6.78,0,0,0,7,9.44c1.79,1.83,4.35,2.93,6.41,4.32A9.44,9.44,0,0,1,16,16.12a5.71,5.71,0,0,1,1,3.38h.5V19H5.5v.5H6a6.24,6.24,0,0,1,1.74-4.4c1.59-1.76,4.09-3,6.24-4.48A11.65,11.65,0,0,0,16.79,8.1,5.85,5.85,0,0,0,18,4.5a.5.5,0,0,0-.5-.5H5.5a.5.5,0,0,0-.5.5h.5V5h12V4.5H17a5.15,5.15,0,0,1-1.73,3.82C13.68,9.9,11.16,11.11,9,12.68a11.2,11.2,0,0,0-2.81,2.79A7.12,7.12,0,0,0,5,19.5a.5.5,0,0,0,.5.5h12a.5.5,0,0,0,.5-.5,6.78,6.78,0,0,0-2-4.94c-1.79-1.83-4.35-2.93-6.41-4.32A9.44,9.44,0,0,1,7,7.88,5.71,5.71,0,0,1,6,4.5H5.5v0Z"/><polygon points="5.5 19.5 11.5 16.5 17.5 19.5 5.5 19.5"/><path class="a" d="M5.5,19.5l.22.45,5.78-2.89L15.38,19H5.5v.5l.22.45L5.5,19.5V20h12a.5.5,0,0,0,.22-.95l-6-3a.5.5,0,0,0-.45,0l-6,3A.5.5,0,0,0,5.5,20Z"/><polygon points="8.5 7.5 11.5 10.5 14.5 7.5 8.5 7.5"/><path class="a" d="M8.5,7.5l-.35.35,3,3a.5.5,0,0,0,.71,0l3-3A.5.5,0,0,0,14.5,7h-6a.5.5,0,0,0-.35.85L8.5,7.5V8h4.79L11.5,9.79,8.85,7.15,8.5,7.5v0Z"/><path class="a" d="M11,9.5v8a.5.5,0,0,0,1,0v-8a.5.5,0,0,0-1,0"/><path class="a" d="M4.5,5h14a.5.5,0,0,0,0-1H4.5a.5.5,0,0,0,0,1"/><path class="a" d="M18.5,19H4.5a.5.5,0,0,0,0,1h14a.5.5,0,0,0,0-1"/></svg>