<svg xmlns="http://www.w3.org/2000/svg" width="24" height="24" viewBox="0 0 24 24"><defs><style>.a{fill:#1a171b;}</style></defs><title>chocolate-white-24-imac</title><path class="a" d="M3.5,3.5V4h16a.51.51,0,0,1,.5.5v12a.51.51,0,0,1-.5.5H3.5a.51.51,0,0,1-.5-.5V4.5A.51.51,0,0,1,3.5,4V3A1.5,1.5,0,0,0,2,4.5v12A1.5,1.5,0,0,0,3.5,18h16A1.5,1.5,0,0,0,21,16.5V4.5A1.5,1.5,0,0,0,19.5,3H3.5Z"/><path class="a" d="M10.5,16h2a.5.5,0,0,0,0-1h-2a.5.5,0,0,0,0,1"/><path class="a" d="M18.5,13.5V13H5V6H18v7.5h.5v0H19v-8a.5.5,0,0,0-.5-.5H4.5a.5.5,0,0,0-.5.5v8a.5.5,0,0,0,.5.5h14a.5.5,0,0,0,.5-.5Z"/><path class="a" d="M16.5,20.5V20H6.5a.5.5,0,1,0,0,1,2.31,2.31,0,0,0,1.3-.47,3.54,3.54,0,0,0,1.2-3H8.5V18h6v-.5H14a3.54,3.54,0,0,0,1.2,3,2.31,2.31,0,0,0,1.3.47.5.5,0,0,0,0-1v0h0v0a1.38,1.38,0,0,1-.77-.33A2.66,2.66,0,0,1,15,17.5a.5.5,0,0,0-.5-.5h-6a.5.5,0,0,0-.5.5,2.56,2.56,0,0,1-.8,2.22,1.43,1.43,0,0,1-.51.24l-.16,0h0v0h0v0a.5.5,0,1,0,0,1h10a.5.5,0,0,0,0-1Z"/></svg>