<svg xmlns="http://www.w3.org/2000/svg" width="24" height="24" viewBox="0 0 24 24"><title>key</title><path d="M10.5,8.5H10A5.5,5.5,0,1,0,15.5,3,5.5,5.5,0,0,0,10,8.5h1a4.5,4.5,0,1,1,1.32,3.18A4.48,4.48,0,0,1,11,8.5Z"/><path d="M15.5,7H15a2,2,0,1,0,2-2,2,2,0,0,0-2,2h1a1,1,0,1,1,1,1,1,1,0,0,1-1-1Z"/><polygon points="10.83 10.46 4 17.29 4 20 8 20 8 18 10 18 10 17 12 17 12 15 12.5 15 13 15 13 12.5 12 12.5 12 14 11.5 14 11 14 11 16 9 16 9 17 7 17 7 19 5 19 5 17.71 11.54 11.17 10.83 10.46 10.83 10.46"/></svg>