<svg xmlns="http://www.w3.org/2000/svg" width="24" height="24" viewBox="0 0 24 24"><defs><style>.a{fill:#1a171b;}</style></defs><title>chocolate-white-24-link-45</title><path class="a" d="M20.49,4.43,19.07,3a2.54,2.54,0,0,0-1.77-.88A2.54,2.54,0,0,0,15.54,3L12,6.55a2.54,2.54,0,0,0-.88,1.77A2.54,2.54,0,0,0,12,10.09l.35.35-1.41,1.41-.35-.35a2.54,2.54,0,0,0-1.77-.88,2.54,2.54,0,0,0-1.77.88L3.51,15a2.54,2.54,0,0,0-.88,1.77,2.54,2.54,0,0,0,.88,1.77L4.93,20a2.54,2.54,0,0,0,1.77.88A2.54,2.54,0,0,0,8.46,20L12,16.45a2.54,2.54,0,0,0,.88-1.77A2.54,2.54,0,0,0,12,12.91l-.35-.35,1.41-1.41.35.35a2.54,2.54,0,0,0,1.77.88,2.54,2.54,0,0,0,1.77-.88L20.49,8a2.54,2.54,0,0,0,.88-1.77A2.54,2.54,0,0,0,20.49,4.43Zm-9.19,9.19a1.58,1.58,0,0,1,.58,1.06,1.58,1.58,0,0,1-.58,1.06L7.76,19.28a1.58,1.58,0,0,1-1.06.58,1.58,1.58,0,0,1-1.06-.58L4.22,17.86a1.58,1.58,0,0,1-.58-1.06,1.58,1.58,0,0,1,.58-1.06l3.54-3.54a1.58,1.58,0,0,1,1.06-.58,1.58,1.58,0,0,1,1.06.58l.35.35L9.17,13.62a.5.5,0,0,0,.71.71l1.06-1.06Zm8.49-6.36-3.54,3.54a1.58,1.58,0,0,1-1.06.58,1.58,1.58,0,0,1-1.06-.58l-.35-.35,1.06-1.06a.5.5,0,0,0-.71-.71L13.06,9.73l-.35-.35a1.58,1.58,0,0,1-.58-1.06,1.58,1.58,0,0,1,.58-1.06l3.54-3.54a1.58,1.58,0,0,1,1.06-.58,1.58,1.58,0,0,1,1.06.58l1.41,1.41a1.58,1.58,0,0,1,.58,1.06A1.58,1.58,0,0,1,19.78,7.26Z"/></svg>