<svg xmlns="http://www.w3.org/2000/svg" width="24" height="24" viewBox="0 0 24 24"><title>lock</title><path d="M9.5,11.5H10v-3A1.51,1.51,0,0,1,11.5,7h1A1.51,1.51,0,0,1,14,8.5V11H9.5v.5h0V12H15V8.5A2.51,2.51,0,0,0,12.5,6h-1A2.51,2.51,0,0,0,9,8.5V12h.5Z"/><path d="M7.5,11.5H8v-3A3.51,3.51,0,0,1,11.5,5h1A3.51,3.51,0,0,1,16,8.5V11H7.5v.5h0V12H17V8.5A4.51,4.51,0,0,0,12.5,4h-1A4.51,4.51,0,0,0,7,8.5V12h.5Z"/><path d="M18.38,20.5V20H5.62a.5.5,0,0,1-.5-.5v-.06l.78-7a.5.5,0,0,1,.5-.44H17.61a.5.5,0,0,1,.5.44l.78,7v.06a.5.5,0,0,1-.5.5v1a1.5,1.5,0,0,0,1.5-1.5v-.17l-.78-7A1.5,1.5,0,0,0,17.61,11H6.39A1.5,1.5,0,0,0,4.9,12.33l-.78,7v.17A1.5,1.5,0,0,0,5.62,21H18.38Z"/><path d="M12.57,16.39l-.5,0L12,18h0l-.06-2-.3-.12a1,1,0,1,1,.75,0l-.3.12v.32l.5,0,.19.46a2,2,0,1,0-1.51,0l.19-.46-.5,0L11,19h2l.08-2.6-.5,0,.19.46Z"/></svg>