<svg xmlns="http://www.w3.org/2000/svg" width="24" height="24" viewBox="0 0 24 24"><title>lock-open</title><path d="M14.27,12H16.8l1-1.87h0a4.46,4.46,0,0,0,.48-2,4.51,4.51,0,0,0-2.48-4l-.89-.45a4.46,4.46,0,0,0-2-.48,4.51,4.51,0,0,0-4,2.48L7.27,8.76,9.52,9.89h0l.43.17L11.52,7a1.51,1.51,0,0,1,1.35-.82,1.48,1.48,0,0,1,.67.16l.89.45a1.51,1.51,0,0,1,.82,1.35,1.48,1.48,0,0,1-.16.67h0l-1.27,2.5.89.45L16,9.22h0a2.5,2.5,0,0,0-1.11-3.36L14,5.42a2.5,2.5,0,0,0-3.36,1.11L9.28,9.21l.45.22L9.91,9h0l-.19.46L9.95,9,8.61,8.31,9.73,6.08a3.51,3.51,0,0,1,3.14-1.93,3.46,3.46,0,0,1,1.56.37l.89.45a3.51,3.51,0,0,1,1.92,3.14,3.46,3.46,0,0,1-.37,1.56l.45.22-.44-.23L16.2,11H14.27v1Z"/><path d="M18.38,20.5V20H5.62a.5.5,0,0,1-.5-.5v-.06l.78-7a.5.5,0,0,1,.5-.44H17.61a.5.5,0,0,1,.5.44l.78,7v.06a.5.5,0,0,1-.5.5v1a1.5,1.5,0,0,0,1.5-1.5v-.17l-.78-7A1.5,1.5,0,0,0,17.61,11H6.39A1.5,1.5,0,0,0,4.9,12.33l-.78,7v.17A1.5,1.5,0,0,0,5.62,21H18.38Z"/><path d="M12.57,16.39l-.5,0L12,18h0l-.06-2-.3-.12a1,1,0,1,1,.75,0l-.3.12v.32l.5,0,.19.46a2,2,0,1,0-1.51,0l.19-.46-.5,0L11,19h2l.08-2.6-.5,0,.19.46Z"/></svg>