<svg xmlns="http://www.w3.org/2000/svg" width="24" height="24" viewBox="0 0 24 24"><defs><style>.a{fill:#1a171b;}</style></defs><title>chocolate-white-24-mixed-shapes</title><path class="a" d="M10.5,10.5V10H4V4h6v6.5h.5v0H11v-7a.5.5,0,0,0-.5-.5h-7a.5.5,0,0,0-.5.5v7a.5.5,0,0,0,.5.5h7a.5.5,0,0,0,.5-.5Z"/><path class="a" d="M19.5,17H19a3,3,0,1,1-3-3,3,3,0,0,1,3,3h1a4,4,0,1,0-4,4,4,4,0,0,0,4-4Z"/><path class="a" d="M8.37,14.5V14H5.48a.5.5,0,0,0-.43.25L3.6,16.75a.5.5,0,0,0,0,.5L5,19.75a.5.5,0,0,0,.43.25H8.37a.5.5,0,0,0,.43-.25l1.44-2.5a.5.5,0,0,0,0-.5L8.8,14.25A.5.5,0,0,0,8.37,14v.5l-.43.25L9.23,17,8.08,19H5.77L4.61,17l1.15-2h2.6v-.5l-.43.25Z"/><path class="a" d="M16,4.4l-.43.25,1.51,2.61,1.07,1.86H13.87l1.07-1.86,1.51-2.61L16,4.4l-.43.25L16,4.4l-.43-.25L14.07,6.75,12.57,9.36a.5.5,0,0,0,.43.75h6a.5.5,0,0,0,.43-.75L18,6.75,16.45,4.15a.5.5,0,0,0-.87,0Z"/></svg>