<svg xmlns="http://www.w3.org/2000/svg" width="24" height="24" viewBox="0 0 24 24"><defs><style>.a{fill:#1a171b;}</style></defs><title>chocolate-white-24-no-entry</title><path class="a" d="M8.5,3.5V4h6.79L20,8.71v6.59L15.29,20H8.68L4,16.26V8.71L8.85,3.85,8.5,3.5v0l-.35-.35-5,5A.5.5,0,0,0,3,8.5v8a.5.5,0,0,0,.19.39l5,4A.5.5,0,0,0,8.5,21h7a.5.5,0,0,0,.35-.15l5-5A.5.5,0,0,0,21,15.5v-7a.5.5,0,0,0-.15-.35l-5-5A.5.5,0,0,0,15.5,3h-7a.5.5,0,0,0-.35.15Z"/><path class="a" d="M16.5,13.5V13H8V11h8v2.5h.5v0H17v-3a.5.5,0,0,0-.5-.5h-9a.5.5,0,0,0-.5.5v3a.5.5,0,0,0,.5.5h9a.5.5,0,0,0,.5-.5Z"/></svg>