<svg xmlns="http://www.w3.org/2000/svg" width="24" height="24" viewBox="0 0 24 24"><defs><style>.a{fill:#1a171b;}</style></defs><title>natepad</title><polygon class="a" points="10.5 16.5 11 16.5 11 13.71 17.5 7.21 19.79 9.5 13.29 16 10.5 16 10.5 16.5 11 16.5 10.5 16.5 10.5 17 13.71 17 21.21 9.5 17.5 5.79 10 13.29 10 17 10.5 17 10.5 16.5"/><rect class="a" x="10.5" y="14.5" width="2" height="2"/><polygon class="a" points="15 17 15 19 5 19 5 4 15 4 15 6 16 6 16 3 4 3 4 20 16 20 16 17 15 17 15 17"/><polyline class="a" points="7 7 13 7 13 6 7 6"/><polyline class="a" points="7 10 11 10 11 9 7 9"/><polyline class="a" points="7 13 9 13 9 12 7 12"/></svg>