<svg xmlns="http://www.w3.org/2000/svg" width="24" height="24" viewBox="0 0 24 24"><defs><style>.a{fill:#1a171b;}</style></defs><title>chocolate-white-24-paper-plane</title><path class="a" d="M19.34,5l-18,6a.5.5,0,0,0-.14.87L5,14.78l1,5.8a.5.5,0,0,0,1,.1l2-4.89,9.5-8.64-3.24,9.73L8.64,15a.5.5,0,0,0-.6.3l-2,5a.5.5,0,1,0,.93.37L8.8,16.1,15.36,18a.5.5,0,0,0,.61-.32l4-12a.5.5,0,0,0-.81-.53l-11,10L8,15.31,6.7,18.66,6,14.42a.5.5,0,0,0-.19-.32L2.56,11.67,19.66,6A.5.5,0,0,0,19.34,5Z"/><path class="a" d="M5.77,14.92l14-9a.5.5,0,0,0-.54-.84l-14,9a.5.5,0,0,0,.54.84"/><path class="a" d="M6.85,20.85l4-4a.5.5,0,0,0-.71-.71l-4,4a.5.5,0,0,0,.71.71"/></svg>