<svg xmlns="http://www.w3.org/2000/svg" width="24" height="24" viewBox="0 0 24 24"><defs><style>.a{fill:#1a171b;}</style></defs><title>chocolate-white-24-parcel-iso-view</title><path class="a" d="M9.5,20.5l.28-.42L4,16.23V8.31l5,2.5V20.5h.5l.28-.42-.28.42H10v-10a.5.5,0,0,0-.28-.45l-6-3A.5.5,0,0,0,3,7.5v9a.5.5,0,0,0,.22.42l6,4A.5.5,0,0,0,10,20.5Z"/><path class="a" d="M20.5,15.5,20.29,15,10,19.72V10.88L20,8.15V15.5h.5L20.29,15l.21.46H21v-8A.5.5,0,0,0,20.37,7l-11,3A.5.5,0,0,0,9,10.5v10a.5.5,0,0,0,.71.46l11-5A.5.5,0,0,0,21,15.5Z"/><path class="a" d="M18.54,14.08l-.21-.46-3.52,1.6V12.54L18,11.65v2.42h.5l-.21-.46.21.46H19V11a.5.5,0,0,0-.63-.48l-4.23,1.15a.5.5,0,0,0-.37.48V16a.5.5,0,0,0,.71.46l4.23-1.92a.5.5,0,0,0,.29-.46Z"/><path class="a" d="M3.59,8,14.46,6l5.88,2A.5.5,0,0,0,20.66,7l-6-2-.25,0-11,2a.5.5,0,0,0,.18,1Z"/></svg>