<svg xmlns="http://www.w3.org/2000/svg" width="24" height="24" viewBox="0 0 24 24"><defs><style>.a{fill:#1a171b;}</style></defs><title>chocolate-white-24-present</title><path class="a" d="M17.5,8h-5l0-.06a6.11,6.11,0,0,0,3-1,3,3,0,0,0,1.37-2.3,1.56,1.56,0,0,0-.47-1.15A1.81,1.81,0,0,0,15,3a2.89,2.89,0,0,0-1.87.74A6.86,6.86,0,0,0,11.55,6V6c-.1-.24-.21-.5-.34-.76a5.81,5.81,0,0,0-1-1.5A2.37,2.37,0,0,0,8.5,3a1.47,1.47,0,0,0-1.12.46A1.58,1.58,0,0,0,7,4.54a3.22,3.22,0,0,0,1.17,2.3,4.67,4.67,0,0,0,2.39,1.08L10.5,8h-5A1.5,1.5,0,0,0,4,9.5v10A1.5,1.5,0,0,0,5.5,21h12A1.5,1.5,0,0,0,19,19.5V9.5A1.5,1.5,0,0,0,17.5,8Zm0,1a.5.5,0,0,1,.5.5V14H12V9h0l2.1,2.8a.5.5,0,1,0,.8-.6L13.25,9ZM13.89,4.45A1.85,1.85,0,0,1,15,4a.82.82,0,0,1,.58.18.56.56,0,0,1,.16.42,2,2,0,0,1-1,1.49,5.22,5.22,0,0,1-2.6.86,8.85,8.85,0,0,1,.69-1.37A4.52,4.52,0,0,1,13.89,4.45ZM8,4.54a.59.59,0,0,1,.12-.41A.47.47,0,0,1,8.5,4a1.37,1.37,0,0,1,1,.48,6,6,0,0,1,1.15,1.94c.08.19.14.36.19.52a3.71,3.71,0,0,1-2-.85A2.25,2.25,0,0,1,8,4.54ZM5.5,9H9.75L8.1,11.2a.5.5,0,0,0,.8.6L11,9h0v5H5V9.5A.5.5,0,0,1,5.5,9ZM5,19.5V15h6v5H5.5A.5.5,0,0,1,5,19.5Zm12.5.5H12V15h6v4.5A.5.5,0,0,1,17.5,20Z"/></svg>