<svg xmlns="http://www.w3.org/2000/svg" width="24" height="24" viewBox="0 0 24 24"><defs><style>.a{fill:#1a171b;}</style></defs><title>chocolate-white-24-rating</title><polygon class="a" points="4.5 8.26 5.23 10.5 7.58 10.5 5.68 11.88 6.4 14.12 4.5 12.74 2.6 14.12 3.32 11.88 1.42 10.5 3.77 10.5 4.5 8.26"/><path class="a" d="M4.5,8.26,4,8.42l.73,2.24a.5.5,0,0,0,.48.35H6l-.66.48A.5.5,0,0,0,5.2,12l.25.77-.66-.48a.5.5,0,0,0-.59,0l-.66.48L3.8,12a.5.5,0,0,0-.18-.56L3,11h.81a.5.5,0,0,0,.48-.35L5,8.42,4.5,8.26,4,8.42l.48-.15L4,8.11,3.41,10h-2a.5.5,0,0,0-.29.9l1.61,1.17L2.12,14a.5.5,0,0,0,.77.56L4.5,13.35l1.61,1.17A.5.5,0,0,0,6.88,14l-.61-1.89L7.87,10.9a.5.5,0,0,0-.29-.9h-2L5,8.11a.5.5,0,0,0-1,0Z"/><polygon class="a" points="11.5 8.26 12.23 10.5 14.58 10.5 12.68 11.88 13.4 14.12 11.5 12.74 9.6 14.12 10.32 11.88 8.42 10.5 10.77 10.5 11.5 8.26"/><path class="a" d="M11.5,8.26,11,8.42l.73,2.24a.5.5,0,0,0,.48.35H13l-.66.48a.5.5,0,0,0-.18.56l.25.77-.66-.48a.5.5,0,0,0-.59,0l-.66.48L10.8,12a.5.5,0,0,0-.18-.56L10,11h.81a.5.5,0,0,0,.48-.35L12,8.42l-.48-.15L11,8.42l.48-.15L11,8.11,10.41,10h-2a.5.5,0,0,0-.29.9l1.61,1.17L9.12,14a.5.5,0,0,0,.77.56l1.61-1.17,1.61,1.17a.5.5,0,0,0,.77-.56l-.61-1.89,1.61-1.17a.5.5,0,0,0-.29-.9h-2L12,8.11a.5.5,0,0,0-1,0Z"/><path class="a" d="M18.5,8.26,18,8.42l.73,2.24a.5.5,0,0,0,.48.35H20l-.66.48a.5.5,0,0,0-.18.56l.25.77-.66-.48a.5.5,0,0,0-.59,0l-.66.48L17.8,12a.5.5,0,0,0-.18-.56L17,11h.81a.5.5,0,0,0,.48-.35L19,8.42l-.48-.15L18,8.42l.48-.15L18,8.11,17.41,10h-2a.5.5,0,0,0-.29.9l1.61,1.17L16.12,14a.5.5,0,0,0,.77.56l1.61-1.17,1.61,1.17a.5.5,0,0,0,.77-.56l-.61-1.89,1.61-1.17a.5.5,0,0,0-.29-.9h-2L19,8.11a.5.5,0,0,0-1,0Z"/></svg>