<svg xmlns="http://www.w3.org/2000/svg" width="24" height="24" viewBox="0 0 24 24"><title>shrink-horizontally</title><path d="M3,17h.5V7A.51.51,0,0,1,4,6.5H19a.51.51,0,0,1,.5.5V17a.51.51,0,0,1-.5.5H4a.51.51,0,0,1-.5-.5h-1A1.5,1.5,0,0,0,4,18.5H19A1.5,1.5,0,0,0,20.5,17V7A1.5,1.5,0,0,0,19,5.5H4A1.5,1.5,0,0,0,2.5,7V17Z"/><path d="M16.5,12v-.5H15v1h5v-1H16.5v1H20v-1H15v1h1.5Z"/><polygon points="17.65 8.65 14.29 12 17.65 15.35 18.35 14.65 15.71 12 18.35 9.35 17.65 8.65 17.65 8.65"/><path d="M6.5,12v.5H8v-1H3v1H6.5v-1H3v1H8v-1H6.5Z"/><polygon points="5.35 15.35 8.71 12 5.35 8.65 4.65 9.35 7.29 12 4.65 14.65 5.35 15.35 5.35 15.35"/></svg>