<svg xmlns="http://www.w3.org/2000/svg" width="24" height="24" viewBox="0 0 24 24"><title>shrink-vertically</title><path d="M16.5,20.5V20H6.5a.51.51,0,0,1-.5-.5V4.5A.51.51,0,0,1,6.5,4h10a.51.51,0,0,1,.5.5v15a.51.51,0,0,1-.5.5v1A1.5,1.5,0,0,0,18,19.5V4.5A1.5,1.5,0,0,0,16.5,3H6.5A1.5,1.5,0,0,0,5,4.5v15A1.5,1.5,0,0,0,6.5,21h10Z"/><path d="M11.5,7H11c0,1.38,0,1.5,0,1.5h1v-5H11S11,5.62,11,7h1V3.5H11S11,5.62,11,7s0,1.5,0,1.5h1V7Z"/><polygon points="8.15 5.85 11.5 9.21 14.85 5.85 14.15 5.15 11.5 7.79 8.85 5.15 8.15 5.85 8.15 5.85"/><path d="M11.5,17H12V15.5H11s0,.12,0,1.5,0,3.5,0,3.5h1V17H11c0,1.38,0,3.5,0,3.5h1v-5H11s0,.12,0,1.5Z"/><polygon points="14.85 18.15 11.5 14.79 8.15 18.15 8.85 18.85 11.5 16.21 14.15 18.85 14.85 18.15 14.85 18.15"/></svg>