<svg xmlns="http://www.w3.org/2000/svg" width="24" height="24" viewBox="0 0 24 24"><defs><style>.a{fill:#1a171b;}</style></defs><title>chocolate-white-24-similar-shapes</title><path class="a" d="M10.5,11.5V11H4V5h6v6.5h.5v0H11v-7a.5.5,0,0,0-.5-.5h-7a.5.5,0,0,0-.5.5v7a.5.5,0,0,0,.5.5h7a.5.5,0,0,0,.5-.5Z"/><path class="a" d="M19.5,11.5V11H13V5h5a1,1,0,0,1,1,1V11.5h.5v0H20V6a2,2,0,0,0-2-2H12.5a.5.5,0,0,0-.5.5v7a.5.5,0,0,0,.5.5h7a.5.5,0,0,0,.5-.5Z"/><path class="a" d="M9,20.5V20H4V14h6v5a1,1,0,0,1-1,1v1a2,2,0,0,0,2-2V13.5a.5.5,0,0,0-.5-.5h-7a.5.5,0,0,0-.5.5v7a.5.5,0,0,0,.5.5H9Z"/><path class="a" d="M19.5,20.5V20H13V15a1,1,0,0,1,1-1h5v6.5h.5v0H20v-7a.5.5,0,0,0-.5-.5H14a2,2,0,0,0-2,2V20.5a.5.5,0,0,0,.5.5h7a.5.5,0,0,0,.5-.5Z"/></svg>