<svg xmlns="http://www.w3.org/2000/svg" width="24" height="24" viewBox="0 0 24 24"><defs><style>.a{fill:#1a171b;}</style></defs><title>chocolate-white-24-speech-bubble</title><path class="a" d="M20.5,9.5H20v2A4.51,4.51,0,0,1,15.5,16h-3a.5.5,0,0,0-.5.5v1.79L9.85,16.15A.5.5,0,0,0,9.5,16h-1A4.51,4.51,0,0,1,4,11.5v-2A4.51,4.51,0,0,1,8.5,5h7A4.51,4.51,0,0,1,20,9.5h1A5.51,5.51,0,0,0,15.5,4h-7A5.51,5.51,0,0,0,3,9.5v2A5.51,5.51,0,0,0,8.5,17h.79l2.85,2.85A.5.5,0,0,0,13,19.5V17h2.5A5.51,5.51,0,0,0,21,11.5v-2Z"/></svg>