<svg xmlns="http://www.w3.org/2000/svg" width="24" height="24" viewBox="0 0 24 24"><defs><style>.a{fill:#1a171b;}</style></defs><title>chocolate-white-24-speech-bubbles</title><path class="a" d="M17.5,7.5V7h-5A3.51,3.51,0,0,0,9,10.5v3A3.51,3.51,0,0,0,12.5,17H15l2.1,2.8a.5.5,0,0,0,.9-.3v-3h-.5V17A3.51,3.51,0,0,0,21,13.5v-3A3.51,3.51,0,0,0,17.5,7V8A2.51,2.51,0,0,1,20,10.5v3A2.51,2.51,0,0,1,17.5,16a.5.5,0,0,0-.5.5V18l-1.35-1.8a.5.5,0,0,0-.4-.2H12.5A2.51,2.51,0,0,1,10,13.5v-3A2.51,2.51,0,0,1,12.5,8h5Z"/><path class="a" d="M14,7.5A3.51,3.51,0,0,0,10.5,4h-4A3.51,3.51,0,0,0,3,7.5v2a3.5,3.5,0,0,0,2.33,3.29l.17-.47H5V15.5a.5.5,0,0,0,.9.3L8,13H9.5a.5.5,0,1,0,0-1H7.75a.5.5,0,0,0-.4.2L6,14V12.31a.5.5,0,0,0-.33-.47A2.5,2.5,0,0,1,4,9.5v-2A2.51,2.51,0,0,1,6.5,5h4A2.51,2.51,0,0,1,13,7.5a.5.5,0,0,0,1,0Z"/></svg>