<svg xmlns="http://www.w3.org/2000/svg" width="24" height="24" viewBox="0 0 24 24"><defs><style>.a{fill:#1a171b;}</style></defs><title>chocolate-white-24-thumb-up</title><path class="a" d="M14.5,9.5V10a.66.66,0,0,0,.3-.08,2.35,2.35,0,0,0,.65-.58A6.45,6.45,0,0,0,17,5.5a1.66,1.66,0,0,0-.2-.89,1.17,1.17,0,0,0-.51-.45A1.84,1.84,0,0,0,15.5,4a1.49,1.49,0,0,0-.78.3,13.09,13.09,0,0,0-1.45,1.2c-.82.75-1.76,1.65-2.64,2.35a9,9,0,0,1-1.24.85A2,2,0,0,1,8.5,9a2.56,2.56,0,0,0-1.45.48,4.75,4.75,0,0,0-1.49,1.81A5.16,5.16,0,0,0,5,13.5v1a1.71,1.71,0,0,0,.3.92,5,5,0,0,0,1.41,1.32A14,14,0,0,0,13.5,19a5.42,5.42,0,0,0,2.9-1,4.29,4.29,0,0,0,1.12-1.08A2.56,2.56,0,0,0,18,15.5v-3A3.51,3.51,0,0,0,14.5,9a.5.5,0,1,0,0,1v0A2.51,2.51,0,0,1,17,12.5v3a1.56,1.56,0,0,1-.31.88,3.77,3.77,0,0,1-1.43,1.16A4.18,4.18,0,0,1,13.5,18a12.45,12.45,0,0,1-4.91-1.33,9,9,0,0,1-1.94-1.22,2.83,2.83,0,0,1-.52-.57A.73.73,0,0,1,6,14.5v-1a4.45,4.45,0,0,1,.79-2.34,3.3,3.3,0,0,1,.82-.86A1.56,1.56,0,0,1,8.5,10a4,4,0,0,0,2.08-.87,33,33,0,0,0,3.13-2.68c.47-.44.91-.83,1.25-1.09a3.57,3.57,0,0,1,.43-.3L15.51,5h0l0-.12V5h0l0-.12V5a.88.88,0,0,1,.37.06l.11.12a1.11,1.11,0,0,1,0,.32A5,5,0,0,1,15.2,8a5.39,5.39,0,0,1-.61.83,1.77,1.77,0,0,1-.21.2l0,0h0l.15.28V9a.3.3,0,0,0-.15,0l.15.28V9a.5.5,0,1,0,0,1Z"/></svg>