<svg xmlns="http://www.w3.org/2000/svg" width="24" height="24" viewBox="0 0 24 24"><defs><style>.a{fill:#1a171b;}</style></defs><title>chocolate-white-24-toggle-switch-off</title><path class="a" d="M20.5,6.5V6H3.5A1.5,1.5,0,0,0,2,7.5v9A1.5,1.5,0,0,0,3.5,18h17A1.5,1.5,0,0,0,22,16.5v-9A1.5,1.5,0,0,0,20.5,6V7a.51.51,0,0,1,.5.5v9a.51.51,0,0,1-.5.5H3.5a.51.51,0,0,1-.5-.5v-9A.51.51,0,0,1,3.5,7h17Zm-1,3H19v5a.5.5,0,0,1-.5.5h-5a.5.5,0,0,1-.5-.5v-5a.5.5,0,0,1,.5-.5h5a.5.5,0,0,1,.5.5h1A1.5,1.5,0,0,0,18.5,8h-5A1.5,1.5,0,0,0,12,9.5v5A1.5,1.5,0,0,0,13.5,16h5A1.5,1.5,0,0,0,20,14.5v-5Z"/><path class="a" d="M9.5,12H10a3.33,3.33,0,0,0-.7-2.08A2.32,2.32,0,0,0,7.5,9a2.32,2.32,0,0,0-1.8.92,3.46,3.46,0,0,0,0,4.16A2.32,2.32,0,0,0,7.5,15a2.32,2.32,0,0,0,1.8-.92A3.33,3.33,0,0,0,10,12H9a2.34,2.34,0,0,1-.48,1.46,1.32,1.32,0,0,1-1,.54,1.32,1.32,0,0,1-1-.54,2.46,2.46,0,0,1,0-2.91,1.32,1.32,0,0,1,1-.54,1.32,1.32,0,0,1,1,.54A2.34,2.34,0,0,1,9,12Z"/></svg>