<svg xmlns="http://www.w3.org/2000/svg" width="24" height="24" viewBox="0 0 24 24"><title>chocolate-white-24-trash-simple</title><polygon points="16.38 19.5 16.38 19 7.32 19 6.17 7 17.07 7 15.88 19.45 16.38 19.5 16.38 19 16.38 19.5 16.88 19.55 18.18 6 5.08 6 6.41 20 16.84 20 16.88 19.55 16.38 19.5"/><polyline points="13.36 8.96 12.8 16.96 13.8 17.04 14.35 9.04"/><polyline points="8.9 9.04 9.45 17.04 10.45 16.96 9.89 8.96"/><polyline points="4.63 7 18.63 7 18.63 6 4.63 6"/><path d="M7.63,7H9.17V6.5A3.11,3.11,0,0,1,9.53,5a1.27,1.27,0,0,1,.33-.39.47.47,0,0,1,.28-.1h3a.47.47,0,0,1,.28.1,1.58,1.58,0,0,1,.48.7,3.37,3.37,0,0,1,.22,1.23h1a4.09,4.09,0,0,0-.5-2,2.26,2.26,0,0,0-.61-.7,1.47,1.47,0,0,0-.87-.29h-3a1.47,1.47,0,0,0-.87.29,2.54,2.54,0,0,0-.82,1.14A4.37,4.37,0,0,0,8.17,6.5h.5V6h-1V7Z"/></svg>