<svg xmlns="http://www.w3.org/2000/svg" width="24" height="24" viewBox="0 0 24 24"><title>chocolate-white-24-trash</title><polygon points="16.26 19.5 16.26 19 7.2 19 6.05 7 16.95 7 15.76 19.45 16.26 19.5 16.26 19 16.26 19.5 16.75 19.55 18.05 6 4.95 6 6.29 20 16.71 20 16.75 19.55 16.26 19.5"/><polyline points="14 8.96 13.38 16.96 14.38 17.04 15 9.04"/><polyline points="11 9 11 17 12 17 12 9"/><polyline points="8 9.04 8.62 17.04 9.62 16.96 9 8.96"/><polyline points="4.5 7 18.5 7 18.5 6 4.5 6"/><path d="M7.5,7H9V6.5A3.11,3.11,0,0,1,9.41,5a1.27,1.27,0,0,1,.33-.39.47.47,0,0,1,.28-.1h3a.47.47,0,0,1,.28.1,1.58,1.58,0,0,1,.48.7A3.37,3.37,0,0,1,14,6.5h1a4.09,4.09,0,0,0-.5-2,2.26,2.26,0,0,0-.61-.7A1.47,1.47,0,0,0,13,3.47H10a1.47,1.47,0,0,0-.87.29,2.54,2.54,0,0,0-.82,1.14A4.37,4.37,0,0,0,8,6.5h.5V6h-1V7Z"/></svg>