<svg xmlns="http://www.w3.org/2000/svg" width="24" height="24" viewBox="0 0 24 24"><title>chocolate-white-24-trash-full</title><path d="M14.26,19.5V19H8.74a1.46,1.46,0,0,1-1.07-.59,7.67,7.67,0,0,1-1.4-3,16.9,16.9,0,0,1-.53-4.17A11.2,11.2,0,0,1,6,8.54a3.67,3.67,0,0,1,.82-1.69L6.5,6.5V7h10V6.5l-.35.35c.88.86,1.34,2.61,1.33,4.55a14.07,14.07,0,0,1-1,5.28,5.82,5.82,0,0,1-1.08,1.74,1.59,1.59,0,0,1-1.12.58v1a2.58,2.58,0,0,0,1.84-.88,8.29,8.29,0,0,0,1.74-3.34,15.67,15.67,0,0,0,.64-4.38c0-2.07-.43-4-1.62-5.25L16.71,6H6.29l-.15.15A4.61,4.61,0,0,0,5.06,8.3a12.18,12.18,0,0,0-.32,2.91,17,17,0,0,0,1,5.75,6.89,6.89,0,0,0,1.2,2.11A2.45,2.45,0,0,0,8.74,20h5.51Z"/><path d="M14.26,9A32.22,32.22,0,0,1,13,16.84l1,.27A33.22,33.22,0,0,0,15.26,9l-1,0Z"/><path d="M11,8.65q0,1,0,2.09,0,3.13,0,6.26h1q0-3.13,0-6.26,0-1,0-2.09H11Z"/><path d="M7.74,9A33.22,33.22,0,0,0,9,17.11l1-.27A32.22,32.22,0,0,1,8.74,9l-1,0Z"/><polyline points="4.5 7 18.5 7 18.5 6 4.5 6"/><path d="M7.5,7H9V6.5A3.11,3.11,0,0,1,9.41,5a1.27,1.27,0,0,1,.33-.39.47.47,0,0,1,.28-.1h3a.47.47,0,0,1,.28.1,1.58,1.58,0,0,1,.48.7A3.37,3.37,0,0,1,14,6.5h1a4.09,4.09,0,0,0-.5-2,2.26,2.26,0,0,0-.61-.7A1.47,1.47,0,0,0,13,3.47H10a1.47,1.47,0,0,0-.87.29,2.54,2.54,0,0,0-.82,1.14A4.37,4.37,0,0,0,8,6.5h.5V6h-1V7Z"/></svg>