<svg xmlns="http://www.w3.org/2000/svg" width="24" height="24" viewBox="0 0 24 24"><defs><style>.a{fill:#1a171b;}</style></defs><title>chocolate-white-24-truck</title><path class="a" d="M15.5,14.5V14H3V6H15v8.5h.5v0H16v-9a.5.5,0,0,0-.5-.5H2.5a.5.5,0,0,0-.5.5v9a.5.5,0,0,0,.5.5h13a.5.5,0,0,0,.5-.5Z"/><path class="a" d="M21.5,15.5V15H16V8.09l5,.83V15.5h.5v0H22v-7A.5.5,0,0,0,21.58,8l-6-1A.5.5,0,0,0,15,7.5v8a.5.5,0,0,0,.5.5h6a.5.5,0,0,0,.5-.5Z"/><path class="a" d="M21.5,10.17l.08-.49-4-.67A.5.5,0,0,0,17,9.5v3a.5.5,0,0,0,.5.5h4a.5.5,0,0,0,.5-.5V10.17a.5.5,0,0,0-.42-.49l-.08.49H21V12H18V10.09l3.42.57.08-.49h0Z"/><path class="a" d="M5.5,17H5a1,1,0,1,1-1-1,1,1,0,0,1,1,1H6a2,2,0,1,0-2,2,2,2,0,0,0,2-2Z"/><path class="a" d="M9.5,17H9a1,1,0,1,1-1-1,1,1,0,0,1,1,1h1a2,2,0,1,0-2,2,2,2,0,0,0,2-2Z"/><path class="a" d="M19.5,17H19a1,1,0,1,1-1-1,1,1,0,0,1,1,1h1a2,2,0,1,0-2,2,2,2,0,0,0,2-2Z"/><path class="a" d="M16.5,16h-7a.5.5,0,0,0,0,1h7a.5.5,0,0,0,0-1"/></svg>