<svg xmlns="http://www.w3.org/2000/svg" width="24" height="24" viewBox="0 0 24 24"><defs><style>.a{fill:#1a171b;}</style></defs><title>chocolate-white-24-watch</title><path class="a" d="M8.5,10.5V11h6a.51.51,0,0,1,.5.5v5a.51.51,0,0,1-.5.5h-6a.51.51,0,0,1-.5-.5v-5a.51.51,0,0,1,.5-.5V10A1.5,1.5,0,0,0,7,11.5v5A1.5,1.5,0,0,0,8.5,18h6A1.5,1.5,0,0,0,16,16.5v-5A1.5,1.5,0,0,0,14.5,10h-6Z"/><path class="a" d="M10.5,6.5V7h2a.51.51,0,0,1,.5.5V10H10V7.5a.51.51,0,0,1,.5-.5V6A1.5,1.5,0,0,0,9,7.5v3a.5.5,0,0,0,.5.5h4a.5.5,0,0,0,.5-.5v-3A1.5,1.5,0,0,0,12.5,6h-2Z"/><path class="a" d="M12.5,21.5V21h-2a.51.51,0,0,1-.5-.5V18h3v2.5a.51.51,0,0,1-.5.5v1A1.5,1.5,0,0,0,14,20.5v-3a.5.5,0,0,0-.5-.5h-4a.5.5,0,0,0-.5.5v3A1.5,1.5,0,0,0,10.5,22h2Z"/><path class="a" d="M11.85,14.15l-2-2a.5.5,0,1,0-.71.71l2,2a.5.5,0,0,0,.71-.71"/><path class="a" d="M11.95,14.72l1-2a.5.5,0,1,0-.89-.45l-1,2a.5.5,0,0,0,.89.45"/></svg>